<svg width="27" height="29" viewBox="0 0 27 29" fill="none" xmlns="http://www.w3.org/2000/svg">
<path fill-rule="evenodd" clip-rule="evenodd" d="M13.5 2.41666C9.77203 2.41666 6.74996 5.43873 6.74996 9.16666V12.0038C6.74996 12.4141 6.74996 12.6192 6.73974 12.8211C6.68455 13.9125 6.40634 14.981 5.92229 15.9607C5.83274 16.142 5.73269 16.321 5.53261 16.6792L4.89365 17.8231C4.28603 18.9108 3.98222 19.4547 4.1401 19.8856C4.18138 19.9983 4.24261 20.1027 4.32085 20.1936C4.6201 20.5417 5.24307 20.5417 6.48902 20.5417H20.511C21.7569 20.5417 22.3799 20.5417 22.6791 20.1937C22.7574 20.1027 22.8186 19.9983 22.8599 19.8856C23.0177 19.4547 22.7139 18.9108 22.1063 17.8231L21.4673 16.6793L21.4673 16.6791C21.2672 16.321 21.1672 16.142 21.0777 15.9607C20.5936 14.981 20.3154 13.9125 20.2602 12.8211C20.25 12.6192 20.25 12.414 20.25 12.0038V11.187C20.25 11.0203 20.25 10.937 20.2021 10.8924C20.1542 10.8479 20.0633 10.8546 19.8817 10.8679C19.8175 10.8726 19.7528 10.875 19.6875 10.875C18.1342 10.875 16.875 9.52252 16.875 7.85416C16.875 6.67592 17.503 5.65524 18.4191 5.15722C18.5978 5.06012 18.6871 5.01156 18.6995 4.94004C18.7118 4.86851 18.6517 4.80128 18.5313 4.66682C17.2954 3.28579 15.4992 2.41666 13.5 2.41666Z" fill="#7E869E" fill-opacity="0.25"/>
<ellipse cx="19.6875" cy="7.85416" rx="1.6875" ry="1.8125" fill="#222222"/>
<path d="M16.1625 21.75C16.2453 21.75 16.3131 21.8172 16.3071 21.8999C16.2647 22.4861 15.9749 23.0411 15.4887 23.4588C14.9613 23.912 14.2459 24.1667 13.5 24.1667C12.7541 24.1667 12.0387 23.912 11.5113 23.4588C11.0251 23.0411 10.7353 22.4861 10.6929 21.8999C10.6869 21.8172 10.7547 21.75 10.8375 21.75L13.5 21.75L16.1625 21.75Z" fill="#222222"/>
</svg>
