<svg width="31" height="29" viewBox="0 0 31 29" fill="none" xmlns="http://www.w3.org/2000/svg">
<path fill-rule="evenodd" clip-rule="evenodd" d="M15.5 22.9583C20.4936 22.9583 24.5417 19.1714 24.5417 14.5C24.5417 9.82858 20.4936 6.04166 15.5 6.04166C10.5064 6.04166 6.45833 9.82858 6.45833 14.5C6.45833 19.1714 10.5064 22.9583 15.5 22.9583ZM12.8955 8.73431C13.7195 8.41503 14.6047 8.24999 15.5 8.24999C15.7761 8.24999 16 8.02613 16 7.74999C16 7.47385 15.7761 7.24999 15.5 7.24999C14.4823 7.24999 13.4745 7.43752 12.5342 7.80186C11.5939 8.16621 10.7396 8.70024 10.0199 9.37347C9.30026 10.0467 8.7294 10.8459 8.33993 11.7255C7.95045 12.6051 7.74999 13.5479 7.74999 14.5C7.74999 14.7761 7.97385 15 8.24999 15C8.52614 15 8.74999 14.7761 8.74999 14.5C8.74999 13.6888 8.92068 12.8839 9.2543 12.1304C9.58801 11.3767 10.0791 10.6874 10.7031 10.1037C11.3272 9.51991 12.0716 9.05356 12.8955 8.73431Z" fill="#7E869E" fill-opacity="0.25"/>
<path d="M26.4792 24.7708L21.9583 20.5417" stroke="#222222" stroke-linecap="round"/>
<path d="M25.3333 13.2917C25.3333 18.9907 20.3844 23.6667 14.2083 23.6667C8.03223 23.6667 3.08333 18.9907 3.08333 13.2917C3.08333 7.59259 8.03223 2.91666 14.2083 2.91666C20.3844 2.91666 25.3333 7.59259 25.3333 13.2917Z" stroke="#222222"/>
</svg>
